<?xml version="1.0" standalone="no"?><!DOCTYPE svg PUBLIC "-//W3C//DTD SVG 1.1//EN" "http://www.w3.org/Graphics/SVG/1.1/DTD/svg11.dtd"><svg t="1569818132595" class="icon" viewBox="0 0 1024 1024" version="1.1" xmlns="http://www.w3.org/2000/svg" p-id="7258" xmlns:xlink="http://www.w3.org/1999/xlink" width="64" height="64"><defs><style type="text/css"></style></defs><path d="M163.669333 673.621333H102.4a89.770667 89.770667 0 0 1-89.6-89.6V132.608A89.770667 89.770667 0 0 1 102.4 43.008h61.269333a89.770667 89.770667 0 0 1 89.6 89.6v451.413333a89.770667 89.770667 0 0 1-89.6 89.6zM102.4 119.466667a12.8 12.8 0 0 0-12.8 12.8v451.754666A12.8 12.8 0 0 0 102.4 597.333333h61.269333a12.8 12.8 0 0 0 12.8-12.8V132.608A12.8 12.8 0 0 0 163.669333 119.466667z" fill="#d81e06" p-id="7259"></path><path d="M671.402667 983.04a78.336 78.336 0 0 1-19.968-2.56 76.288 76.288 0 0 1-48.298667-38.570667l-136.533333-261.12a13.653333 13.653333 0 0 0-12.117334-7.338666h-66.56a90.624 90.624 0 0 1-90.453333-90.453334V131.242667a90.453333 90.453333 0 0 1 90.453333-90.282667H802.133333a90.453333 90.453333 0 0 1 87.552 68.266667l118.101334 452.096A90.453333 90.453333 0 0 1 921.6 673.792H750.933333l10.410667 36.864c12.458667 43.690667 22.186667 78.165333 26.624 98.645333a144.896 144.896 0 0 1-68.266667 159.402667 88.405333 88.405333 0 0 1-48.298666 14.336zM387.925333 117.76a13.653333 13.653333 0 0 0-13.653333 13.482667v451.925333a13.653333 13.653333 0 0 0 13.653333 13.653333h66.901334a90.282667 90.282667 0 0 1 80.042666 48.469334l136.533334 260.949333a10.24 10.24 0 0 0 6.144-2.218667 68.266667 68.266667 0 0 0 34.133333-78.848c-3.925333-18.602667-13.482667-52.224-25.258667-93.525333l-17.066666-58.197333a61.269333 61.269333 0 0 1 9.898666-53.248A58.197333 58.197333 0 0 1 727.04 597.333333H921.6a13.653333 13.653333 0 0 0 13.141333-17.066666L815.786667 127.829333a13.653333 13.653333 0 0 0-13.653334-10.069333z" fill="#d81e06" p-id="7260"></path></svg>