<?xml version="1.0" standalone="no"?><!DOCTYPE svg PUBLIC "-//W3C//DTD SVG 1.1//EN" "http://www.w3.org/Graphics/SVG/1.1/DTD/svg11.dtd"><svg t="1564125740470" class="icon" viewBox="0 0 1024 1024" version="1.1" xmlns="http://www.w3.org/2000/svg" p-id="1646" xmlns:xlink="http://www.w3.org/1999/xlink" width="200" height="200"><defs><style type="text/css"></style></defs><path d="M851.346737 860.737919H155.676896c-51.651499 0-93.911817-42.260317-93.911817-93.911817V262.953086c0-51.651499 42.260317-93.911817 93.911817-93.911816h695.308642c51.651499 0 93.911817 42.260317 93.911816 93.911816v503.511817c0.361199 52.012698-41.899118 94.273016-93.550617 94.273016M155.676896 205.161199c-31.785538 0-57.791887 26.006349-57.791887 57.791887v503.511817c0 31.785538 26.006349 57.791887 57.791887 57.791887h695.308642c31.785538 0 57.791887-26.006349 57.791887-57.791887V262.953086c0-31.785538-26.006349-57.791887-57.791887-57.791887H155.676896z" fill="#d81e06" p-id="1647"></path><path d="M386.9817 518.739979l25.544014 25.53679-285.502758 285.582222-25.544014-25.53679zM621.053291 514.88237l289.118363 289.118364-25.540402 25.53679-289.118363-289.114752z" fill="#d81e06" p-id="1648"></path><path d="M104.386596 352.169312l398.764021 219.247972 399.125221-219.247972-398.764021 262.953087z" fill="#d81e06" p-id="1649"></path></svg>