<?xml version="1.0" standalone="no"?><!DOCTYPE svg PUBLIC "-//W3C//DTD SVG 1.1//EN" "http://www.w3.org/Graphics/SVG/1.1/DTD/svg11.dtd"><svg t="1569817006328" class="icon" viewBox="0 0 1024 1024" version="1.1" xmlns="http://www.w3.org/2000/svg" p-id="4949" xmlns:xlink="http://www.w3.org/1999/xlink" width="64" height="64"><defs><style type="text/css"></style></defs><path d="M368 650c-60.1 0-116.602-23.404-159.099-65.901C166.405 541.602 143 485.1 143 425s23.404-116.603 65.901-159.099C251.398 223.404 307.901 200 368 200s116.602 23.404 159.099 65.901C569.596 308.397 593 364.9 593 425s-23.404 116.602-65.9 159.099C484.603 626.596 428.1 650 368 650z m0-414c-104.215 0-189 84.785-189 189s84.785 189 189 189 189-84.785 189-189-84.785-189-189-189z" fill="#FF00ED" p-id="4950"></path><path d="M563.385 525.795c-59.031 0-114.529-22.988-156.271-64.729-41.741-41.741-64.729-97.239-64.729-156.271s22.988-114.529 64.729-156.271c41.742-41.741 97.24-64.729 156.271-64.729 59.031 0 114.529 22.988 156.271 64.729 41.741 41.742 64.729 97.24 64.729 156.271s-22.988 114.529-64.729 156.271c-41.742 41.741-97.24 64.729-156.271 64.729z m0-406.001c-102.009 0-185 82.991-185 185s82.991 185 185 185c102.01 0 185.001-82.991 185.001-185s-82.991-185-185.001-185z" fill="#00FFFF" p-id="4951"></path><path d="M859.707 35.09l25.456 25.455-128.427 128.426-25.455-25.455z" fill="#00FFFF" p-id="4952"></path><path d="M822.214 33.832h56.214v20h-56.214z" fill="#00FFFF" p-id="4953"></path><path d="M863.428 37.832h20v53.962h-20z" fill="#00FFFF" p-id="4954"></path><path d="M177 753.847h369.037v36H177z" fill="#FF00ED" p-id="4955"></path><path d="M350 649.835h36v336.033h-36z" fill="#FF00ED" p-id="4956"></path></svg>